<?xml version="1.0" encoding="UTF-8"?>
<!DOCTYPE svg PUBLIC "-//W3C//DTD SVG 1.1//EN" "http://www.w3.org/Graphics/SVG/1.1/DTD/svg11.dtd">
<svg version="1.2" width="15.88mm" height="15.88mm" viewBox="0 0 1588 1588" preserveAspectRatio="xMidYMid" fill-rule="evenodd" stroke-width="28.222" stroke-linejoin="round" xmlns="http://www.w3.org/2000/svg" xmlns:ooo="http://xml.openoffice.org/svg/export" xmlns:xlink="http://www.w3.org/1999/xlink" xmlns:presentation="http://sun.com/xmlns/staroffice/presentation" xmlns:smil="http://www.w3.org/2001/SMIL20/" xmlns:anim="urn:oasis:names:tc:opendocument:xmlns:animation:1.0" xml:space="preserve">
 <defs class="ClipPathGroup">
  <clipPath id="presentation_clip_path" clipPathUnits="userSpaceOnUse">
   <rect x="0" y="0" width="1588" height="1588"/>
  </clipPath>
  <clipPath id="presentation_clip_path_shrink" clipPathUnits="userSpaceOnUse">
   <rect x="1" y="1" width="1585" height="1585"/>
  </clipPath>
 </defs>
 <defs class="TextShapeIndex">
  <g ooo:slide="id1" ooo:id-list="id3"/>
 </defs>
 <defs class="EmbeddedBulletChars">
  <g id="bullet-char-template-57356" transform="scale(0.00048828125,-0.00048828125)">
   <path d="M 580,1141 L 1163,571 580,0 -4,571 580,1141 Z"/>
  </g>
  <g id="bullet-char-template-57354" transform="scale(0.00048828125,-0.00048828125)">
   <path d="M 8,1128 L 1137,1128 1137,0 8,0 8,1128 Z"/>
  </g>
  <g id="bullet-char-template-10146" transform="scale(0.00048828125,-0.00048828125)">
   <path d="M 174,0 L 602,739 174,1481 1456,739 174,0 Z M 1358,739 L 309,1346 659,739 1358,739 Z"/>
  </g>
  <g id="bullet-char-template-10132" transform="scale(0.00048828125,-0.00048828125)">
   <path d="M 2015,739 L 1276,0 717,0 1260,543 174,543 174,936 1260,936 717,1481 1274,1481 2015,739 Z"/>
  </g>
  <g id="bullet-char-template-10007" transform="scale(0.00048828125,-0.00048828125)">
   <path d="M 0,-2 C -7,14 -16,27 -25,37 L 356,567 C 262,823 215,952 215,954 215,979 228,992 255,992 264,992 276,990 289,987 310,991 331,999 354,1012 L 381,999 492,748 772,1049 836,1024 860,1049 C 881,1039 901,1025 922,1006 886,937 835,863 770,784 769,783 710,716 594,584 L 774,223 C 774,196 753,168 711,139 L 727,119 C 717,90 699,76 672,76 641,76 570,178 457,381 L 164,-76 C 142,-110 111,-127 72,-127 30,-127 9,-110 8,-76 1,-67 -2,-52 -2,-32 -2,-23 -1,-13 0,-2 Z"/>
  </g>
  <g id="bullet-char-template-10004" transform="scale(0.00048828125,-0.00048828125)">
   <path d="M 285,-33 C 182,-33 111,30 74,156 52,228 41,333 41,471 41,549 55,616 82,672 116,743 169,778 240,778 293,778 328,747 346,684 L 369,508 C 377,444 397,411 428,410 L 1163,1116 C 1174,1127 1196,1133 1229,1133 1271,1133 1292,1118 1292,1087 L 1292,965 C 1292,929 1282,901 1262,881 L 442,47 C 390,-6 338,-33 285,-33 Z"/>
  </g>
  <g id="bullet-char-template-9679" transform="scale(0.00048828125,-0.00048828125)">
   <path d="M 813,0 C 632,0 489,54 383,161 276,268 223,411 223,592 223,773 276,916 383,1023 489,1130 632,1184 813,1184 992,1184 1136,1130 1245,1023 1353,916 1407,772 1407,592 1407,412 1353,268 1245,161 1136,54 992,0 813,0 Z"/>
  </g>
  <g id="bullet-char-template-8226" transform="scale(0.00048828125,-0.00048828125)">
   <path d="M 346,457 C 273,457 209,483 155,535 101,586 74,649 74,723 74,796 101,859 155,911 209,963 273,989 346,989 419,989 480,963 531,910 582,859 608,796 608,723 608,648 583,586 532,535 482,483 420,457 346,457 Z"/>
  </g>
  <g id="bullet-char-template-8211" transform="scale(0.00048828125,-0.00048828125)">
   <path d="M -4,459 L 1135,459 1135,606 -4,606 -4,459 Z"/>
  </g>
  <g id="bullet-char-template-61548" transform="scale(0.00048828125,-0.00048828125)">
   <path d="M 173,740 C 173,903 231,1043 346,1159 462,1274 601,1332 765,1332 928,1332 1067,1274 1183,1159 1299,1043 1357,903 1357,740 1357,577 1299,437 1183,322 1067,206 928,148 765,148 601,148 462,206 346,322 231,437 173,577 173,740 Z"/>
  </g>
 </defs>
 <defs class="TextEmbeddedBitmaps"/>
 <g>
  <g id="id2" class="Master_Slide">
   <g id="bg-id2" class="Background"/>
   <g id="bo-id2" class="BackgroundObjects"/>
  </g>
 </g>
 <g class="SlideGroup">
  <g>
   <g id="container-id1">
    <g id="id1" class="Slide" clip-path="url(#presentation_clip_path)">
     <g class="Page">
      <g class="Graphic">
       <g id="id3">
        <rect class="BoundingBox" stroke="none" fill="none" x="0" y="0" width="1588" height="1588"/>
        <path fill="rgb(102,109,137)" stroke="none" d="M 1149,463 C 1107,421 1051,397 997,397 951,397 908,414 877,445 L 753,571 C 753,571 752,571 752,572 752,572 751,572 751,572 L 487,838 C 480,845 475,852 471,860 466,867 464,874 461,882 L 401,1100 C 401,1100 397,1117 397,1126 397,1142 401,1156 409,1171 417,1185 428,1195 442,1203 456,1212 470,1215 487,1215 497,1215 516,1211 516,1211 L 733,1154 C 741,1151 748,1148 755,1144 764,1139 770,1134 777,1128 L 1167,734 C 1238,663 1230,544 1149,463 L 1149,463 Z M 788,938 L 1030,697 C 1045,743 1037,792 1005,825 1005,825 1004,825 1004,825 L 1004,826 807,1025 C 807,1018 807,1012 807,1006 804,981 799,961 788,938 Z M 775,915 C 766,899 755,884 742,871 726,855 708,843 689,833 L 933,589 C 939,592 944,594 949,597 964,606 975,614 987,626 998,637 1007,648 1015,662 1017,665 1018,668 1020,671 L 775,915 Z M 665,821 C 641,811 619,806 592,805 L 789,607 C 819,577 863,569 906,580 L 665,821 Z M 504,1161 C 498,1163 493,1164 486,1164 479,1164 474,1163 468,1159 461,1156 457,1151 453,1145 450,1139 448,1133 448,1126 449,1122 450,1114 451,1112 L 478,1014 C 507,1013 539,1025 563,1049 588,1075 600,1106 599,1136 L 504,1161 Z M 624,1129 C 623,1095 609,1059 581,1031 555,1005 520,989 485,988 L 510,896 C 512,889 516,884 520,878 572,841 651,852 706,907 763,965 772,1050 728,1101 725,1102 722,1104 719,1105 L 624,1129 Z M 1131,698 L 1088,742 C 1088,736 1089,730 1088,724 1083,675 1060,627 1023,590 981,548 926,524 871,524 L 914,481 C 935,460 964,448 997,448 1038,448 1080,467 1113,499 1143,530 1161,568 1164,606 1166,642 1155,674 1131,698 L 1131,698 Z"/>
        <path fill="rgb(102,109,137)" stroke="none" d="M 793,13 C 1224,13 1574,363 1574,793 1574,1224 1224,1574 793,1574 363,1574 13,1224 13,793 13,363 363,13 793,13 L 793,13 Z M 793,65 C 391,65 65,391 65,793 65,1196 391,1522 793,1522 1196,1522 1522,1196 1522,793 1522,391 1196,65 793,65 L 793,65 Z"/>
       </g>
      </g>
     </g>
    </g>
   </g>
  </g>
 </g>
</svg>